# xmcd
#
# Track frame offsets:
#  150
#  13838
#  27209
#  39919
#  53271
#  66314
#  79226
#  93079
#  105323
#  118074
#  130541
#  144499
#  157308
#  171136
#  185034
#  200058
#  214466
#  227269
#  240895
#  254770
#  269156
#
# Disc length: 3761 seconds
#
# Revision: 1
# Processed by: cddbd v1.5.1PL2 Copyright (c) Steve Scherf et al.
# Submitted via: Collectorz.com_Music_Collector 6.10
#
DISCID=260eaf15
DTITLE=Fletcher Henderson - Wrappin' It Up [CD1)
DYEAR=2005
DGENRE=Pop Classic Band
TTITLE0=Shuffing Sadie
TTITLE1=Fidgety Feet
TTITLE2=Sensation
TTITLE3=Swamp Blues
TTITLE4=Off to Buffalo
TTITLE5=St. Louis Shuffle
TTITLE6=Variety Stomp
TTITLE7=P.D.Q. Blues
TTITLE8=Livery Stable Blues
TTITLE9=Whiteman Stomp
TTITLE10=I'm Coming Virginia
TTITLE11=Cornfed!
TTITLE12=Variety Stomp
TTITLE13=St. Louis Blues
TTITLE14=Hop Off
TTITLE15=Rough House Blues
TTITLE16=Black Maria
TTITLE17=Goose Pimples
TTITLE18=Baltimore
TTITLE19=A Rhythmic Dream
TTITLE20=Hop Off
EXTD=
EXTT0=
EXTT1=
EXTT2=
EXTT3=
EXTT4=
EXTT5=
EXTT6=
EXTT7=
EXTT8=
EXTT9=
EXTT10=
EXTT11=
EXTT12=
EXTT13=
EXTT14=
EXTT15=
EXTT16=
EXTT17=
EXTT18=
EXTT19=
EXTT20=
PLAYORDER=
